<svg height='300px' width='300px'  fill="#000000" xmlns="http://www.w3.org/2000/svg" xmlns:xlink="http://www.w3.org/1999/xlink" version="1.1" x="0px" y="0px" viewBox="0 0 100 100" enable-background="new 0 0 100 100" xml:space="preserve"><g><path d="M75.548,44.204C71.648,34.55,61.952,28.042,50,28.042c-11.952,0-21.647,6.508-25.547,16.162   c-9.167,2.082-16.79,5.916-16.79,12.93c0,13.831,29.608,15.324,42.337,15.324s42.338-1.493,42.338-15.324   C92.338,50.119,84.716,46.286,75.548,44.204z M50,32.718c12.429,0,21.926,8.374,22.68,19.709c-2.212,0.799-8.379,2.369-22.68,2.369   s-20.467-1.57-22.679-2.369C28.075,41.092,37.572,32.718,50,32.718z M50,67.782c-22.527,0-37.662-4.279-37.662-10.648   c0-3.226,3.893-5.912,10.652-7.781c-0.253,1.466-0.393,2.979-0.393,4.535c0,0.726,0.337,1.41,0.913,1.853   c0.81,0.623,5.894,3.731,26.49,3.731c20.596,0,25.68-3.107,26.49-3.73c0.575-0.442,0.913-1.128,0.913-1.854   c0-1.556-0.139-3.068-0.393-4.535c6.758,1.869,10.651,4.556,10.651,7.781C87.662,63.503,72.527,67.782,50,67.782z"></path><path d="M52.442,39.458c0.062,0.006,6.133,0.617,8.796,4.408c0.39,0.554,1.009,0.85,1.639,0.85c0.397,0,0.798-0.118,1.147-0.364   c0.904-0.635,1.122-1.882,0.487-2.786c-3.741-5.323-11.386-6.063-11.709-6.092c-1.105-0.104-2.066,0.711-2.167,1.81   C50.535,38.382,51.345,39.354,52.442,39.458z"></path><circle cx="66.688" cy="47.938" r="2.063"></circle></g></svg>